<?xml version="1.0" standalone="no"?>
<!DOCTYPE svg PUBLIC "-//W3C//DTD SVG 20010904//EN"
 "http://www.w3.org/TR/2001/REC-SVG-20010904/DTD/svg10.dtd">
<svg version="1.0" xmlns="http://www.w3.org/2000/svg"
 width="500.000000pt" height="500.000000pt" viewBox="0 0 500.000000 500.000000"
 preserveAspectRatio="xMidYMid meet">

<g transform="translate(0.000000,500.000000) scale(0.100000,-0.100000)"
fill="#000000" stroke="none">
<path d="M2335 4993 c-600 -41 -1162 -295 -1590 -718 -169 -167 -295 -330
-414 -538 -156 -271 -261 -582 -308 -912 -21 -149 -21 -501 0 -650 97 -684
439 -1267 983 -1676 338 -254 733 -415 1169 -476 157 -22 496 -22 650 0 683
97 1267 439 1676 983 254 339 415 732 476 1169 22 157 22 496 0 650 -80 566
-325 1058 -722 1450 -509 503 -1214 766 -1920 718z m395 -253 c517 -55 990
-281 1360 -650 251 -251 439 -556 549 -887 148 -450 148 -956 0 -1406 -186
-561 -601 -1042 -1126 -1306 -386 -194 -807 -273 -1237 -231 -688 67 -1323
464 -1694 1062 -344 553 -427 1258 -221 1881 186 561 601 1042 1126 1306 246
124 510 203 772 230 111 12 361 12 471 1z"/>
<path d="M1831 3833 c-19 -19 -44 -69 -75 -150 -26 -68 -53 -126 -59 -130 -7
-5 -93 -10 -192 -13 -172 -5 -183 -6 -237 -33 -73 -36 -150 -119 -177 -192
-20 -54 -21 -73 -21 -714 0 -585 2 -663 17 -707 31 -93 84 -152 183 -205 43
-23 54 -24 282 -27 l237 -3 -25 56 c-13 32 -33 74 -44 95 l-19 38 -163 4
c-183 4 -211 13 -251 78 l-22 35 0 637 c0 630 0 637 21 665 11 15 36 38 54 51
32 21 42 22 242 22 165 0 215 3 238 15 23 12 36 35 70 122 56 142 64 157 95
171 19 9 150 12 484 12 438 0 459 -1 483 -19 16 -13 39 -59 67 -133 29 -76 52
-122 72 -140 l29 -28 216 0 c248 0 265 -5 303 -84 21 -41 21 -56 21 -657 l0
-615 -22 -44 c-41 -80 -57 -85 -337 -88 l-244 -4 6 24 c3 13 37 95 77 183 85
188 109 274 117 410 23 415 -284 774 -708 828 -158 20 -356 -22 -496 -104 -82
-48 -232 -200 -281 -284 -97 -166 -134 -375 -98 -555 20 -97 39 -145 203 -510
66 -146 186 -413 267 -595 183 -408 190 -422 238 -446 69 -35 173 -14 210 43
8 13 55 113 105 223 49 110 130 289 179 397 l88 197 321 3 c301 3 323 4 365
24 103 49 179 149 200 266 7 37 10 273 8 680 -4 703 -1 677 -82 780 -34 42
-61 64 -113 90 -67 33 -68 33 -233 36 -91 1 -175 5 -188 8 -25 5 -33 21 -97
187 -29 78 -42 100 -65 112 -25 13 -118 15 -624 15 l-596 0 -29 -27z m812
-762 c206 -72 349 -223 402 -426 18 -70 20 -216 4 -283 -11 -45 -86 -217 -292
-677 -52 -115 -138 -309 -192 -430 -54 -121 -99 -222 -101 -224 -3 -4 -30 54
-144 309 -43 96 -92 205 -109 243 -17 37 -31 70 -31 72 0 3 89 5 199 5 l198 0
41 93 41 92 -284 5 c-156 3 -285 7 -287 10 -8 10 -171 375 -196 439 -23 59
-26 80 -26 196 0 115 3 138 26 197 77 202 239 348 438 393 86 20 235 13 313
-14z"/>
<path d="M2284 2053 c40 -21 131 -42 186 -42 56 -1 165 24 193 44 19 13 0 15
-193 15 -203 -1 -213 -2 -186 -17z"/>
</g>
</svg>
